<svg xmlns="http://www.w3.org/2000/svg" width="16" height="16" viewBox="0 0 16.000004 15.999997"><defs><clipPath id="a"><path d="M154.925 476.154c-2.896 1.715-5.309 5.143-7.239 7.43-5.31-9.145-7.482-19.847-10.136-30.863-3.862 2.857-5.793 8.002-8.207 10.859-5.309-15.431-7.118-28.443-9.17-48.01-2.896 1.714-5.792 5.144-8.205 8.002-.65-16.174 1.931-25.722 4.827-39.439-4.51 1.129-7.562 2.668-11.826 5.43 0 0 12.791-62.593 56.231-62.583 51.002-.01 62.023 62.583 62.023 62.583-4.264-2.762-7.317-4.301-11.826-5.43 2.897 13.717 5.477 23.265 4.827 39.439-2.414-2.858-5.31-6.288-8.205-8.002-1.207 13.776-3.862 32.579-9.171 48.01-2.413-2.857-4.345-8.002-8.205-10.859-1.207 11.016-4.827 21.718-10.136 30.863-1.931-2.287-4.345-5.715-7.241-7.43-2.473 9.845-6.376 19.336-9.17 27.885-2.794-8.549-6.034-16.712-9.171-27.885"/></clipPath><clipPath id="b"><path d="M0 800h800V0H0v800z"/></clipPath><clipPath id="c"><path d="M104.969 504.039h59.127v-177.06h-59.127v177.06z"/></clipPath></defs><g clip-path="url(#a)" transform="matrix(.06685 0 0 -.06685 -2.97 34.45)" fill="#dd6565"><path d="M154.925 476.154c-2.896 1.715-5.309 5.143-7.239 7.43-5.31-9.145-7.482-19.847-10.136-30.863-3.862 2.857-5.793 8.002-8.207 10.859-5.309-15.431-7.118-28.443-9.17-48.01-2.896 1.714-5.792 5.144-8.205 8.002-.65-16.174 1.931-25.722 4.827-39.439-4.51 1.129-7.562 2.668-11.826 5.43 0 0 12.791-62.593 56.231-62.583 51.002-.01 62.023 62.583 62.023 62.583-4.264-2.762-7.317-4.301-11.826-5.43 2.897 13.717 5.477 23.265 4.827 39.439-2.414-2.858-5.31-6.288-8.205-8.002-1.207 13.776-3.862 32.579-9.171 48.01-2.413-2.857-4.345-8.002-8.205-10.859-1.207 11.016-4.827 21.718-10.136 30.863-1.931-2.287-4.345-5.715-7.241-7.43-2.473 9.845-6.376 19.336-9.17 27.885-2.794-8.549-6.034-16.712-9.171-27.885"/></g><g clip-path="url(#b)" transform="matrix(.06685 0 0 -.06685 -2.97 34.45)" fill="#ffd4d4"><path d="M120.173 403.885l42.716-34.511v-7.48l-42.716 41.99zm86.639-.603l-42.716-34.51v-7.482l42.716 41.992zm-67.573 32.7l24.074-21.957.783-7.485-24.857 29.442zm49.714-.964L164.88 413.06l-.783-7.485 24.857 29.443z"/><g clip-path="url(#c)" opacity=".3"><path d="M164.096 504.04c-2.794-8.55-6.033-16.714-9.17-27.886-2.896 1.715-5.31 5.144-7.241 7.43-5.31-9.145-7.481-19.848-10.135-30.863-3.862 2.858-5.792 8.002-8.206 10.86-5.31-15.433-7.12-28.443-9.17-48.012-2.896 1.715-5.792 5.145-8.206 8.002-.65-16.173 1.93-25.72 4.827-39.437-4.51 1.128-7.562 2.667-11.825 5.43 0 0 12.79-62.594 56.23-62.585.982 0 1.944.031 2.896.077V504.04z"/></g><path d="M164.112 464.342l-2.404-176.657 6.088-.364-3.684 177.02z"/></g></svg>