<?xml version="1.0" encoding="UTF-8" standalone="no"?>
<!-- Created with Inkscape (http://www.inkscape.org/) -->

<svg
   xmlns:dc="http://purl.org/dc/elements/1.1/"
   xmlns:cc="http://creativecommons.org/ns#"
   xmlns:rdf="http://www.w3.org/1999/02/22-rdf-syntax-ns#"
   xmlns:svg="http://www.w3.org/2000/svg"
   xmlns="http://www.w3.org/2000/svg"
   xmlns:sodipodi="http://sodipodi.sourceforge.net/DTD/sodipodi-0.dtd"
   xmlns:inkscape="http://www.inkscape.org/namespaces/inkscape"
   width="16"
   height="16"
   viewBox="0 0 16.000004 15.999997"
   id="svg2"
   version="1.1"
   inkscape:version="0.91 r13725"
   sodipodi:docname="logo-16.svg"
   inkscape:export-filename="/home/Igor/Documents/projects/recordall/app/recordall-128.png"
   inkscape:export-xdpi="90.221703"
   inkscape:export-ydpi="90.221703">
  <defs
     id="defs4">
    <clipPath
       id="clipPath3693"
       clipPathUnits="userSpaceOnUse">
      <path
         inkscape:connector-curvature="0"
         id="path3695"
         d="m 154.925,476.154 c -2.896,1.715 -5.309,5.143 -7.239,7.43 l 0,0 c -5.31,-9.145 -7.482,-19.847 -10.136,-30.863 l 0,0 c -3.862,2.857 -5.793,8.002 -8.207,10.859 l 0,0 c -5.309,-15.431 -7.118,-28.443 -9.17,-48.01 l 0,0 c -2.896,1.714 -5.792,5.144 -8.205,8.002 l 0,0 c -0.65,-16.174 1.931,-25.722 4.827,-39.439 l 0,0 c -4.51,1.129 -7.562,2.668 -11.826,5.43 l 0,0 c 0,0 12.791,-62.593 56.231,-62.583 l 0,0 c 51.002,-0.01 62.023,62.583 62.023,62.583 l 0,0 c -4.264,-2.762 -7.317,-4.301 -11.826,-5.43 l 0,0 c 2.897,13.717 5.477,23.265 4.827,39.439 l 0,0 c -2.414,-2.858 -5.31,-6.288 -8.205,-8.002 l 0,0 c -1.207,13.776 -3.862,32.579 -9.171,48.01 l 0,0 c -2.413,-2.857 -4.345,-8.002 -8.205,-10.859 l 0,0 c -1.207,11.016 -4.827,21.718 -10.136,30.863 l 0,0 c -1.931,-2.287 -4.345,-5.715 -7.241,-7.43 l 0,0 c -2.473,9.845 -6.376,19.336 -9.17,27.885 l 0,0 c -2.794,-8.549 -6.034,-16.712 -9.171,-27.885" />
    </clipPath>
    <clipPath
       id="clipPath3717"
       clipPathUnits="userSpaceOnUse">
      <path
         inkscape:connector-curvature="0"
         id="path3719"
         d="M 0,800 800,800 800,0 0,0 0,800 Z" />
    </clipPath>
    <clipPath
       id="clipPath3741"
       clipPathUnits="userSpaceOnUse">
      <path
         inkscape:connector-curvature="0"
         id="path3743"
         d="m 104.969,504.039 59.127,0 0,-177.06 -59.127,0 0,177.06 z" />
    </clipPath>
  </defs>
  <sodipodi:namedview
     id="base"
     pagecolor="#ffffff"
     bordercolor="#666666"
     borderopacity="1.0"
     inkscape:pageopacity="0.0"
     inkscape:pageshadow="2"
     inkscape:zoom="22.4"
     inkscape:cx="18.589364"
     inkscape:cy="10.009651"
     inkscape:document-units="px"
     inkscape:current-layer="layer1"
     showgrid="false"
     fit-margin-top="0"
     fit-margin-left="0"
     fit-margin-right="0"
     fit-margin-bottom="0"
     inkscape:window-width="1366"
     inkscape:window-height="713"
     inkscape:window-x="0"
     inkscape:window-y="27"
     inkscape:window-maximized="1"
     units="px" />
  <metadata
     id="metadata7">
    <rdf:RDF>
      <cc:Work
         rdf:about="">
        <dc:format>image/svg+xml</dc:format>
        <dc:type
           rdf:resource="http://purl.org/dc/dcmitype/StillImage" />
        <dc:title></dc:title>
      </cc:Work>
    </rdf:RDF>
  </metadata>
  <g
     inkscape:label="Layer 1"
     inkscape:groupmode="layer"
     id="layer1"
     transform="translate(-248.35414,-645.78279)">
    <g
       id="g5775"
       transform="matrix(0.05347884,0,0,0.05347884,239.1199,625.63507)">
      <g
         style="fill:#dd6565;fill-opacity:1"
         transform="matrix(1.25,0,0,-1.25,117.1429,1020.9336)"
         id="g3689">
        <g
           style="fill:#dd6565;fill-opacity:1"
           clip-path="url(#clipPath3693)"
           id="g3691">
          <g
             style="fill:#dd6565;fill-opacity:1"
             id="g3697">
            <g
               style="fill:#dd6565;fill-opacity:1"
               id="g3699">
              <path
                 inkscape:connector-curvature="0"
                 id="path3711"
                 style="fill:#dd6565;fill-opacity:1;stroke:none"
                 d="m 154.925,476.154 c -2.896,1.715 -5.309,5.143 -7.239,7.43 l 0,0 c -5.31,-9.145 -7.482,-19.847 -10.136,-30.863 l 0,0 c -3.862,2.857 -5.793,8.002 -8.207,10.859 l 0,0 c -5.309,-15.431 -7.118,-28.443 -9.17,-48.01 l 0,0 c -2.896,1.714 -5.792,5.144 -8.205,8.002 l 0,0 c -0.65,-16.174 1.931,-25.722 4.827,-39.439 l 0,0 c -4.51,1.129 -7.562,2.668 -11.826,5.43 l 0,0 c 0,0 12.791,-62.593 56.231,-62.583 l 0,0 c 51.002,-0.01 62.023,62.583 62.023,62.583 l 0,0 c -4.264,-2.762 -7.317,-4.301 -11.826,-5.43 l 0,0 c 2.897,13.717 5.477,23.265 4.827,39.439 l 0,0 c -2.414,-2.858 -5.31,-6.288 -8.205,-8.002 l 0,0 c -1.207,13.776 -3.862,32.579 -9.171,48.01 l 0,0 c -2.413,-2.857 -4.345,-8.002 -8.205,-10.859 l 0,0 c -1.207,11.016 -4.827,21.718 -10.136,30.863 l 0,0 c -1.931,-2.287 -4.345,-5.715 -7.241,-7.43 l 0,0 c -2.473,9.845 -6.376,19.336 -9.17,27.885 l 0,0 c -2.794,-8.549 -6.034,-16.712 -9.171,-27.885" />
            </g>
          </g>
        </g>
      </g>
      <g
         style="fill:#ffd4d4;fill-opacity:1"
         transform="matrix(1.25,0,0,-1.25,117.1429,1020.9336)"
         id="g3713">
        <g
           style="fill:#ffd4d4;fill-opacity:1"
           clip-path="url(#clipPath3717)"
           id="g3715">
          <g
             style="fill:#ffd4d4;fill-opacity:1"
             transform="translate(120.1733,403.8848)"
             id="g3721">
            <path
               inkscape:connector-curvature="0"
               id="path3723"
               style="fill:#ffd4d4;fill-opacity:1;fill-rule:nonzero;stroke:none"
               d="m 0,0 42.716,-34.511 0,-7.48 L 0,0 Z" />
          </g>
          <g
             style="fill:#ffd4d4;fill-opacity:1"
             transform="translate(206.812,403.2822)"
             id="g3725">
            <path
               inkscape:connector-curvature="0"
               id="path3727"
               style="fill:#ffd4d4;fill-opacity:1;fill-rule:nonzero;stroke:none"
               d="m 0,0 -42.716,-34.511 0,-7.481 L 0,0 Z" />
          </g>
          <g
             style="fill:#ffd4d4;fill-opacity:1"
             transform="translate(139.2388,435.9824)"
             id="g3729">
            <path
               inkscape:connector-curvature="0"
               id="path3731"
               style="fill:#ffd4d4;fill-opacity:1;fill-rule:nonzero;stroke:none"
               d="M 0,0 24.074,-21.957 24.857,-29.442 0,0 Z" />
          </g>
          <g
             style="fill:#ffd4d4;fill-opacity:1"
             transform="translate(188.9531,435.0176)"
             id="g3733">
            <path
               inkscape:connector-curvature="0"
               id="path3735"
               style="fill:#ffd4d4;fill-opacity:1;fill-rule:nonzero;stroke:none"
               d="M 0,0 -24.074,-21.958 -24.857,-29.443 0,0 Z" />
          </g>
          <g
             style="fill:#ffd4d4;fill-opacity:1"
             id="g3737">
            <g
               style="fill:#ffd4d4;fill-opacity:1"
               id="g3739" />
            <g
               style="fill:#ffd4d4;fill-opacity:1"
               id="g3745">
              <g
                 style="opacity:0.30000299;fill:#ffd4d4;fill-opacity:1"
                 id="g3747"
                 clip-path="url(#clipPath3741)">
                <g
                   style="fill:#ffd4d4;fill-opacity:1"
                   id="g3749"
                   transform="translate(164.0957,504.0391)">
                  <path
                     inkscape:connector-curvature="0"
                     id="path3751"
                     style="fill:#ffd4d4;fill-opacity:1;fill-rule:nonzero;stroke:none"
                     d="m 0,0 c -2.794,-8.55 -6.033,-16.713 -9.17,-27.885 -2.896,1.715 -5.31,5.144 -7.241,7.43 -5.309,-9.145 -7.481,-19.848 -10.135,-30.863 -3.862,2.858 -5.792,8.002 -8.206,10.86 -5.309,-15.433 -7.119,-28.443 -9.17,-48.012 -2.896,1.715 -5.792,5.145 -8.206,8.002 -0.65,-16.173 1.931,-25.72 4.827,-39.437 -4.51,1.128 -7.562,2.667 -11.825,5.429 0,0 12.79,-62.593 56.23,-62.584 0.982,0 1.944,0.031 2.896,0.077 L 0,0 Z" />
                </g>
              </g>
            </g>
          </g>
          <g
             style="fill:#ffd4d4;fill-opacity:1"
             transform="translate(164.1123,464.3418)"
             id="g3753">
            <path
               inkscape:connector-curvature="0"
               id="path3755"
               style="fill:#ffd4d4;fill-opacity:1;fill-rule:nonzero;stroke:none"
               d="M 0,0 -2.404,-176.657 3.684,-177.021 0,0 Z" />
          </g>
        </g>
      </g>
    </g>
  </g>
</svg>
